<svg width="24" height="24" viewBox="0 0 24 24" fill="none" xmlns="http://www.w3.org/2000/svg">
  <path opacity="0.4" d="M3 2H21C22.1 2 23 2.9 23 4V21C23 22.1 22.1 23 21 23H3C1.9 23 1 22.1 1 21V4C1 2.9 1.9 2 3 2Z" fill="#637381"/>
  <path d="M6 7H8V9H6V7ZM10 7H12V9H10V7ZM14 7H16V9H14V7ZM18 7H20V9H18V7ZM6 11H8V13H6V11ZM10 11H12V13H10V11ZM14 11H16V13H14V11ZM18 11H20V13H18V11ZM6 15H8V17H6V15ZM10 15H12V17H10V15ZM14 15H16V17H14V15ZM18 15H20V17H18V15ZM3 20H21V18H3V20ZM3 4V6H21V4H3Z" fill="#637381"/>
</svg>
